$MeshFormat
4.1 0 8
$EndMeshFormat
$PhysicalNames
4
1 184 "Walls"
1 185 "Inlet"
1 186 "Outlet"
2 183 "Volume"
$EndPhysicalNames
$Entities
28 30 1 0
1 0 0 0 0 
2 0 1 0 0 
3 0 2 0 0 
4 0 4 0 0 
5 0 5 0 0 
6 0 6 0 0 
7 3 6 0 0 
8 4 6 0 0 
9 7 6 0 0 
10 8 6 0 0 
11 10 6 0 0 
12 10 4 0 0 
13 10 3 0 0 
14 10 0 0 0 
15 7 0 0 0 
16 6 0 0 0 
17 1.5 4.5 0 0 
18 1.5 3.5 0 0 
19 3 4.5 0 0 
20 3 3.5 0 0 
25 6 4 0 0 
26 6 3 0 0 
27 7 3 0 0 
28 7 4 0 0 
29 5.5 2 0 0 
30 5.5 0.5 0 0 
31 6.5 0.5 0 0 
32 6.5 2 0 0 
1 0 0 0 0 1 0 1 184 2 1 -2 
2 0 1 0 0 2 0 1 185 2 2 -3 
3 0 2 0 0 4 0 1 184 2 3 -4 
4 0 4 0 0 5 0 1 185 2 4 -5 
5 0 5 0 0 6 0 1 184 2 5 -6 
6 0 6 0 3 6 0 1 184 2 6 -7 
7 3 6 0 4 6 0 1 186 2 7 -8 
8 4 6 0 7 6 0 1 184 2 8 -9 
9 7 6 0 8 6 0 1 186 2 9 -10 
10 8 6 0 10 6 0 1 184 2 10 -11 
11 10 4 0 10 6 0 1 184 2 11 -12 
12 10 3 0 10 4 0 1 186 2 12 -13 
13 10 0 0 10 3 0 1 184 2 13 -14 
14 7 0 0 10 0 0 1 184 2 14 -15 
15 6 0 0 7 0 0 1 186 2 15 -16 
16 0 0 0 6 0 0 1 184 2 16 -1 
17 1.5 4.5 0 1.5 4.5 0 0 2 17 -17 
18 1.5 3.5 0 1.5 4.5 0 1 184 2 17 -18 
19 1.5 3.5 0 3 3.5 0 1 184 2 18 -20 
20 3 3.5 0 3 4.5 0 1 184 2 20 -19 
21 1.5 4.5 0 3 4.5 0 1 184 2 19 -17 
22 6 3 0 6 4 0 1 184 2 25 -26 
23 6 3 0 7 3 0 1 184 2 26 -27 
24 7 3 0 7 4 0 1 184 2 27 -28 
25 6 4 0 7 4 0 1 184 2 28 -25 
30 5.5 0.5 0 5.5 2 0 1 184 2 29 -30 
31 5.5 0.5 0 6.5 0.5 0 1 184 2 30 -31 
32 6.5 0.5 0 6.5 2 0 1 184 2 31 -32 
33 5.5 2 0 5.5 2 0 0 2 29 -29 
34 5.5 2 0 6.5 2 0 1 184 2 32 -29 
1 0 0 0 10 6 0 1 183 28 6 7 8 9 10 11 12 13 14 15 16 1 2 3 4 5 -20 -19 -18 -21 -24 -23 -22 -25 -32 -31 -30 -34 
$EndEntities
$Nodes
57 599 1 599
0 1 0 1
1
0 0 0
0 2 0 1
2
0 1 0
0 3 0 1
3
0 2 0
0 4 0 1
4
0 4 -0
0 5 0 1
5
0 5 -0
0 6 0 1
6
0 6 -0
0 7 0 1
7
3 6 -0
0 8 0 1
8
4 6 -0
0 9 0 1
9
7 6 -0
0 10 0 1
10
8 6 -0
0 11 0 1
11
10 6 -0
0 12 0 1
12
10 4 -0
0 13 0 1
13
10 3 -0
0 14 0 1
14
10 0 -0
0 15 0 1
15
7 0 -0
0 16 0 1
16
6 0 -0
0 17 0 1
17
1.5 4.5 0
0 18 0 1
18
1.5 3.5 -0
0 19 0 1
19
3 4.5 0
0 20 0 1
20
3 3.5 0
0 25 0 1
21
6 4 0
0 26 0 1
22
6 3 0
0 27 0 1
23
7 3 0
0 28 0 1
24
7 4 0
0 29 0 1
25
5.5 2 -0
0 30 0 1
26
5.5 0.5 -0
0 31 0 1
27
6.5 0.5 0
0 32 0 1
28
6.5 2 0
1 1 0 2
29
30
0 0.3333333333325026 0
0 0.6666666666657889 0
1 2 0 2
31
32
0 1.333333333333333 0
0 1.666666666666667 0
1 3 0 4
33
34
35
36
0 2.399999999999999 0
0 2.799999999999999 0
0 3.2 0
0 3.6 0
1 4 0 2
37
38
0 4.333333333333333 0
0 4.666666666666667 0
1 5 0 2
39
40
0 5.333333333333333 0
0 5.666666666666667 0
1 6 0 7
41
42
43
44
45
46
47
0.3749999999984838 6 0
0.7499999999969201 6 0
1.124999999995584 6 0
1.499999999994291 6 0
1.874999999995687 6 0
2.249999999997124 6 0
2.624999999998562 6 0
1 7 0 2
48
49
3.333333333333333 6 0
3.666666666666667 6 0
1 8 0 7
50
51
52
53
54
55
56
4.375000000000001 6 0
4.750000000000002 6 0
5.125000000000004 6 0
5.500000000000005 6 0
5.875000000000004 6 0
6.250000000000004 6 0
6.625000000000002 6 0
1 9 0 2
57
58
7.333333333333333 6 0
7.666666666666667 6 0
1 10 0 4
59
60
61
62
8.4 6 0
8.800000000000001 6 0
9.199999999999999 6 0
9.6 6 0
1 11 0 4
63
64
65
66
10 5.600000000000001 0
10 5.200000000000001 0
10 4.800000000000001 0
10 4.4 0
1 12 0 2
67
68
10 3.666666666666667 0
10 3.333333333333333 0
1 13 0 7
69
70
71
72
73
74
75
10 2.62500000000181 0
10 2.250000000002578 0
10 1.875000000002479 0
10 1.500000000004159 0
10 1.125000000003151 0
10 0.750000000002101 0
10 0.3750000000010507 0
1 14 0 7
76
77
78
79
80
81
82
9.625000000007416 0 0
9.250000000014833 0 0
8.875000000022247 0 0
8.500000000029313 0 0
8.12500000001487 0 0
7.750000000007368 0 0
7.375000000003684 0 0
1 15 0 2
83
84
6.666666666666667 0 0
6.333333333333333 0 0
1 16 0 14
85
86
87
88
89
90
91
92
93
94
95
96
97
98
5.600000000004347 0 0
5.200000000004046 0 0
4.800000000005999 0 0
4.400000000004876 0 0
4.000000000003867 0 0
3.600000000005648 0 0
3.200000000007486 0 0
2.800000000007844 0 0
2.400000000006723 0 0
2.000000000005603 0 0
1.600000000004482 0 0
1.200000000003362 0 0
0.8000000000022416 0 0
0.4000000000011203 0 0
1 18 0 2
99
100
1.5 4.166666666659266 0
1.5 3.833333333325932 0
1 19 0 3
101
102
103
1.874999999998245 3.5 0
2.249999999998831 3.5 0
2.624999999999416 3.5 0
1 20 0 2
104
105
3 3.833333333325932 0
3 4.166666666659266 0
1 21 0 3
106
107
108
2.624999999999999 4.5 0
2.249999999999997 4.5 0
1.874999999999998 4.5 0
1 22 0 2
109
110
6 3.666666666666667 0
6 3.333333333333333 0
1 23 0 2
111
112
6.333333333333333 3 0
6.666666666666667 3 0
1 24 0 2
113
114
7 3.333333333333333 0
7 3.666666666666667 0
1 25 0 2
115
116
6.666666666666667 4 0
6.333333333333333 4 0
1 30 0 3
117
118
119
5.5 1.625000000001755 0
5.5 1.250000000001169 0
5.5 0.875000000000584 0
1 31 0 2
120
121
5.833333333333333 0.5 0
6.166666666666667 0.5 0
1 32 0 3
122
123
124
6.5 0.8749999999981468 0
6.5 1.249999999998159 0
6.5 1.62499999999908 0
1 34 0 2
125
126
6.166666666666667 2 0
5.833333333333333 2 0
2 1 0 473
127
128
129
130
131
132
133
134
135
136
137
138
139
140
141
142
143
144
145
146
147
148
149
150
151
152
153
154
155
156
157
158
159
160
161
162
163
164
165
166
167
168
169
170
171
172
173
174
175
176
177
178
179
180
181
182
183
184
185
186
187
188
189
190
191
192
193
194
195
196
197
198
199
200
201
202
203
204
205
206
207
208
209
210
211
212
213
214
215
216
217
218
219
220
221
222
223
224
225
226
227
228
229
230
231
232
233
234
235
236
237
238
239
240
241
242
243
244
245
246
247
248
249
250
251
252
253
254
255
256
257
258
259
260
261
262
263
264
265
266
267
268
269
270
271
272
273
274
275
276
277
278
279
280
281
282
283
284
285
286
287
288
289
290
291
292
293
294
295
296
297
298
299
300
301
302
303
304
305
306
307
308
309
310
311
312
313
314
315
316
317
318
319
320
321
322
323
324
325
326
327
328
329
330
331
332
333
334
335
336
337
338
339
340
341
342
343
344
345
346
347
348
349
350
351
352
353
354
355
356
357
358
359
360
361
362
363
364
365
366
367
368
369
370
371
372
373
374
375
376
377
378
379
380
381
382
383
384
385
386
387
388
389
390
391
392
393
394
395
396
397
398
399
400
401
402
403
404
405
406
407
408
409
410
411
412
413
414
415
416
417
418
419
420
421
422
423
424
425
426
427
428
429
430
431
432
433
434
435
436
437
438
439
440
441
442
443
444
445
446
447
448
449
450
451
452
453
454
455
456
457
458
459
460
461
462
463
464
465
466
467
468
469
470
471
472
473
474
475
476
477
478
479
480
481
482
483
484
485
486
487
488
489
490
491
492
493
494
495
496
497
498
499
500
501
502
503
504
505
506
507
508
509
510
511
512
513
514
515
516
517
518
519
520
521
522
523
524
525
526
527
528
529
530
531
532
533
534
535
536
537
538
539
540
541
542
543
544
545
546
547
548
549
550
551
552
553
554
555
556
557
558
559
560
561
562
563
564
565
566
567
568
569
570
571
572
573
574
575
576
577
578
579
580
581
582
583
584
585
586
587
588
589
590
591
592
593
594
595
596
597
598
599
0.3080863900789564 1.817488484305752 0
5.195974125392972 1.810816077805548 0
2.807460485404675 3.190320060139373 0
6.806717330507387 1.81249999999954 0
5.711547370041882 3.166069286634719 0
3.287858091452481 4.334748493570863 0
9.700674575315658 3.839694901463881 0
9.73149699468509 2.879345511120562 0
2.206827364885143 0.3317182927964202 0
9.647512979250909 1.656434011100343 0
3.389359999367572 0.3340357445650362 0
7.288675134594813 3.5 0
1.697428160741655 3.188536996837528 0
3.163635132924645 3.189818340563529 0
2.983664804536791 2.885964256687182 0
8.199999999999999 5.682457351945706 0
8.279629044812214 0.3240732991080887 0
4.536094064806426 5.64640076639949 0
3.334720010867626 2.885626486441328 0
3.509749872323079 3.18705386603859 0
3.158316107536938 2.580282955578603 0
3.682646591510443 2.886274751443364 0
3.856131343847415 3.185972568358726 0
7.18122902246394 5.726757885754784 0
2.801569284948266 2.579468133771615 0
2.980802624465077 2.265824319448282 0
2.615679287808104 2.267903636405316 0
6.489731266668151 4.273505836116248 0
9.661234874562192 4.593547382439767 0
5.194294130761627 2.155463481155987 0
4.898837564967753 1.984851603878984 0
5.705231364628064 5.6215101395352 0
2.79665770000376 1.950306308335628 0
2.430259357338215 1.952416287374131 0
3.16411486316174 1.949564039940089 0
3.793912130604164 5.706645164219049 0
6.810250939506962 1.062051969518008 0
5.193192701733218 1.067987243897876 0
1.436929003107086 0.3343853691560141 0
5.711324865405188 3.833333333333333 0
5.695707389140949 4.169617979578931 0
5.414856146566348 3.9999778827773 0
5.414779315442374 4.340863283735801 0
5.121687723291474 4.169528124839215 0
0.2886751345948126 1.166666666666667 0
5.122971738070903 3.828399156839462 0
4.827382231009086 3.997078624863424 0
9.66602788763605 0.9318238726784653 0
4.236217492627929 0.3766509016529878 0
4.895829959030402 2.321655084694486 0
4.825302682888354 4.339427808324851 0
0.3636238026882774 2.623070453491757 0
4.594009112103908 2.147797285522427 0
4.611705850767366 1.772767974254749 0
0.2800003434702633 5.179426198242716 0
6.434061877145582 5.715503765017749 0
4.540045946635917 4.172407214818412 0
3.169804466328483 5.712266700120789 0
2.977660112834833 1.629954759469523 0
3.3471963298856 1.62986464547716 0
1.22095295555607 4.000901449746335 0
4.547445755580006 4.509285657920293 0
5.696882159946505 4.510989120393258 0
3.301737825325443 4.66727209723478 0
4.855115712866366 3.650744733953863 0
8.958162336758367 5.645468516704658 0
5.41582899210713 4.685224851688508 0
0.2932746785230347 4.479712480777205 0
1.298802625737792 5.697136892606356 0
7.563456971298328 0.3163247906220338 0
2.446260043147126 4.817990189501637 0
2.252761123812168 2.269036116515704 0
2.066913473748687 1.95321587901954 0
2.245164842328986 1.63703031131929 0
1.879320525807652 1.638489669724311 0
1.701898765792542 1.952903098649029 0
1.52138939440264 1.63467284051701 0
3.531989859086048 1.946008194858005 0
0.339820396711855 3.407700913442547 0
1.336945342599426 3.185395137263158 0
1.354819865510049 1.956963468478005 0
4.600813586429598 2.495433392614564 0
4.889755789641457 2.66096205022354 0
3.684893819251013 3.484215114141286 0
3.714317004427143 1.630073790642766 0
3.580269314784001 4.499898617969172 0
3.580976470430848 4.834694634835481 0
1.696916470963757 1.320651123226379 0
1.337269583781757 1.31605925496055 0
1.697265014178643 4.811013569303359 0
1.336793451231905 4.805512259071419 0
9.087500552418366 0.330099064257477 0
4.607876900922478 2.826743480881038 0
3.160810047928918 1.306934026577481 0
2.068953564867409 5.682465909756075 0
4.314465642775295 2.329967676180047 0
1.5180948535235 2.874593550829534 0
6.807728950893278 2.154391862512336 0
7.122940978720659 1.984433669758088 0
5.684183537906321 2.847593894733857 0
5.717201409363982 4.857535202559649 0
4.026977256876224 3.482622973831649 0
3.872020459395938 3.765927197862133 0
5.42251686403963 5.030573941264059 0
1.152745455557886 2.874396239588392 0
0.6000000000016811 0.3464101615147457 0
3.288144386406918 5.000920443482074 0
6.176898860204773 2.779234571208826 0
7.085583894386265 2.38369773549497 0
7.432442946518369 2.166481845868343 0
7.422681839490412 1.807212255303315 0
7.74237332221986 1.98598659972418 0
7.748331103378828 2.343135999758188 0
8.055741523828916 2.163771613701897 0
8.055756947135167 2.519956477853205 0
8.049416488408612 1.803901268346365 0
8.36439908307058 2.342378582118382 0
8.363971812070616 2.696676076308842 0
8.672191143240534 2.520033753021111 0
8.669652499112672 2.872804627977173 0
8.362868805461513 3.046348088057487 0
8.667373691816948 3.220885796213712 0
8.370014065036754 3.394520479061095 0
8.667392617737377 3.565572616742411 0
8.367087251389815 3.738823031686561 0
8.669353837809616 3.911122479951706 0
8.364627747337931 4.086789253880715 0
8.673586402361011 2.163117345942302 0
8.672470630265666 4.262191626854087 0
8.357426665355296 4.425839516423308 0
8.055612308437244 4.259805502350232 0
8.046259077183283 4.59946767706573 0
8.676542141965658 4.618974747539827 0
8.965730208451138 3.39566574658475 0
7.748001578401805 4.434447971504499 0
7.743991997642901 4.786206039395947 0
7.444260460254495 4.610632059150352 0
7.759966216036181 2.682138063308502 0
8.983637213879978 2.343177994296649 0
7.439720482930435 4.958545139365466 0
7.144075304920277 4.78313545574483 0
8.06139024215565 3.565757192333277 0
8.950417465193256 4.056909506338131 0
8.986349919170868 1.982214024047451 0
7.749090466174445 4.086756940948488 0
5.143716503210362 3.491166487005722 0
4.827386056509421 4.684404225332975 0
4.502085676411278 4.863904181530163 0
1.885452816188737 2.880989041483812 0
2.789053205224529 1.309349268161065 0
2.971161303743026 0.9800957921593314 0
8.672456402722009 1.80125468991263 0
8.987881870931432 1.61823756696784 0
8.672125984864849 1.434324727887003 0
8.987193877167103 1.254292718796925 0
8.66966103602331 1.066118410557483 0
8.352289781112285 1.250445940687093 0
4.819253739716851 5.035913184605484 0
2.600874472700244 0.9888059358644143 0
3.862727720304728 4.679236092142125 0
3.86879737760334 5.003040172378729 0
8.093156091271807 4.986805119250009 0
6.025301869094954 4.630632455088119 0
6.025748094384316 5.028106418288775 0
6.322980242609221 4.884638783890855 0
5.421921496986256 3.000000000000005 0
1.14258197250757 4.525402981088215 0
0.9856209152875399 4.811119840053498 0
3.357061079716712 0.9905940894574243 0
9.296295783536664 2.169715856016564 0
1.152197866014801 3.484746675303345 0
7.136157382298164 5.119289705925548 0
9.671501516063369 5.382846897234844 0
1.513261568546692 1.002523652429263 0
1.141793104253473 1.00371288789779 0
0.9969638133704581 1.318807686584015 0
1.881103020364725 1.002711331599379 0
4.050498505067031 2.851318844476895 0
3.85028199726968 2.560893966382666 0
4.996403415164566 0.3362437875862671 0
3.873192801146198 4.330436248538452 0
7.408299978697473 5.268164146854135 0
0.5624999999977021 5.67524047358219 0
5.424419556973229 2.66871293575601 0
2.781930393689033 0.655736940707207 0
1.533182283186042 5.104793337110205 0
1.880533606373079 5.116540471880651 0
1.706247434185514 2.567752107126548 0
5.876399484606175 2.455004042192205 0
3.886929155789919 1.938471804208032 0
4.067691110777577 1.62296993332347 0
3.897583290133952 1.3142233767225 0
4.253294556003706 1.306538306457097 0
4.100961692162455 1.002345696342351 0
4.449591084060067 0.9780772548467844 0
3.541813259389113 3.810129025183402 0
0.8101226202838876 4.528733019159848 0
0.808735105717458 1.001359380325762 0
4.899086052723511 3.00859556747277 0
4.562841394961098 3.173605648343372 0
6.84703173208952 4.954058721782487 0
6.842878533035988 5.294937316478885 0
4.636390519702651 1.317865965140114 0
8.358082431780655 0.8956087236109497 0
8.030864683148902 1.068766836308746 0
8.985825838040803 0.9080964060123262 0
6.505948350190122 2.340637708915361 0
4.18758443087824 3.772795244336389 0
0.6414153894480854 4.826459973676172 0
0.8285951824747175 5.124008299326904 0
6.864327549962206 4.627176864589469 0
6.856955978601984 2.708594774946168 0
8.065357170102871 0.6669800777391484 0
7.720734417688714 0.8881838803028634 0
7.71650118486836 1.255022384977801 0
7.398135238477035 1.066267016169393 0
0.9551994731964707 0.6883411937335021 0
9.290060092751943 2.51897014165122 0
6.31908107281596 5.208120399998851 0
4.514260239710737 5.235916229451893 0
6.831348634487193 0.328328094246393 0
6.019730949185586 5.374086827719003 0
9.316096226993812 1.455551595563486 0
1.752942193559312 5.413154609643223 0
1.681321008851912 0.6748605252579762 0
0.3307104644635773 3.785482312286406 0
0.6398713436577605 3.599340324548082 0
0.6549871393159561 3.961340443821843 0
0.6538974546675714 3.25088586475753 0
7.397422970101027 0.654030260555622 0
4.358870685829869 3.482152548318326 0
4.82858653932005 5.390148829157877 0
4.238318206684896 5.42350860754166 0
7.205237665915907 2.734152603457301 0
7.337787379184616 3.002581011235139 0
0.3207577100388607 4.144907544907672 0
5.169602062270434 0.6468013464503493 0
4.828821784230846 0.9268987298766437 0
4.564038171181113 0.6244046630405149 0
0.3600409360585625 3.023671769407122 0
0.7520023145611967 2.856420130354813 0
0.6587116272767461 2.491028939022231 0
0.4063886245630075 2.213006332256893 0
0.6480901452239659 1.917823950419738 0
0.5485496437933887 1.642027858123854 0
7.840143516441955 5.704549432958054 0
7.988778241050047 5.383268815798211 0
8.345210946381169 5.313693410289305 0
8.45404953884228 4.95288703268055 0
8.728921123724703 5.233618518010044 0
9.710762460353065 3.178105909235511 0
9.39857322263026 3.009204209012585 0
9.436248132689489 3.358399281697199 0
9.676697889574944 4.206703595130977 0
9.34146731722589 4.400381691662568 0
9.333435532030368 4.791332022887686 0
9.428934136324052 4.018732891950867 0
9.655062947077372 4.983032418131202 0
9.34330741300079 5.182450888911842 0
9.610468290264434 2.349482340333708 0
6.80159043445054 0.6995138247948094 0
2.794521150673455 4.818428241542843 0
2.638168596400225 5.132679403446808 0
5.204648970785066 1.443908694551731 0
2.262139426844158 5.118529343388452 0
2.464936348648834 5.460847060225515 0
2.795608023994755 5.389733049310198 0
4.248912205755548 4.333495454703012 0
0.8606513082493116 1.657324603188655 0
7.463896648165808 4.261198731851296 0
7.499442300075254 3.914232424952532 0
7.767937624357403 3.737977603026412 0
8.057533506595568 2.868382624090115 0
7.711353843879685 3.024131001028861 0
6.823711500363632 5.653256781964576 0
0.9510238041677219 5.689668200866187 0
1.114393231892648 5.369320880281514 0
4.268273578694077 1.947577801310752 0
4.156227584020874 4.831665158226297 0
2.440024058356945 3.183055142105563 0
7.206918331833046 0.3114596026839528 0
3.358526553059666 3.485109242805901 0
3.343734781770881 2.263823450495885 0
3.803350755666584 0.3444756018304913 0
8.051586389028524 3.217588355531496 0
7.142657286413603 4.378832425652552 0
7.753482880937986 3.390363744449256 0
2.440687547428376 2.578411429685355 0
5.421484518518749 3.663770985516198 0
3.698121893502959 2.25398464724223 0
6.804529526411962 1.440477426708866 0
5.309510048274658 5.681355289052744 0
8.042177846139687 1.438317265784034 0
8.572049067810706 5.645872966158286 0
7.407478099494041 1.440845300477692 0
9.012349312830377 3.030541712356751 0
8.976536422702232 2.693110612784122 0
3.583747434724029 5.160665290043305 0
3.294749784023144 5.346333829013806 0
3.897758684291175 5.366361330303661 0
1.339915216273479 2.558800557154472 0
7.933351082107463 0.3218462184669019 0
9.667553604654531 1.30549003915656 0
8.679105748229997 0.3628442007126907 0
4.20015194949722 3.187022616792055 0
9.681908738777743 0.5637550328371603 0
9.296929708824344 0.6758016021753639 0
0.3282941327072995 4.828777640959373 0
6.181974484398595 4.297323396308792 0
3.477913385765635 5.702682059129305 0
8.060957606642081 3.912651587370947 0
5.711511624403363 3.498820443104315 0
4.337502706624784 2.658186081906202 0
3.570774641769455 0.6627355465297255 0
3.510456685781295 2.578222227165207 0
4.529638116891692 3.794071236118921 0
8.672470943122136 0.7371545082099705 0
5.44200978360804 2.345021317371647 0
9.02320032489806 4.99688830608234 0
5.121653343400041 4.51235312164471 0
6.491564298418703 2.675503840499054 0
3.557694195801023 4.166959033567445 0
0.2886751345947924 0.8333333333328944 0
0.2917656450441976 0.5188495245071709 0
8.363293336421307 1.982249002446304 0
9.30535125624467 1.816042091716753 0
2.611144647624975 1.633738066418524 0
8.939051994857989 3.719622318172257 0
7.732005846025531 5.138093006711227 0
3.532051267769943 1.314142542819831 0
9.714059502364197 3.507704788698554 0
8.988073592238097 4.366920035036154 0
3.173416833821332 0.6589007600169399 0
5.427699119432241 3.330750196765148 0
0.961587060566595 4.212441874374584 0
0.96596154517733 3.775517750651665 0
2.060470719364333 1.322604325955 0
5.723351232530083 5.209172661820771 0
4.914742458014262 1.59907009945568 0
6.794739506064365 4.300668325084176 0
5.12134013187693 4.860122800055927 0
1.003237052742862 1.930626711229029 0
7.454544883661729 2.5161139018643 0
8.358626639944791 1.618415482510571 0
2.073416535748673 2.573706734798354 0
7.50879021661479 5.733745830685086 0
2.070636684751914 3.187499006392796 0
3.28376188867066 4.008509991570624 0
2.422978886284938 1.322630047800232 0
5.121674786506136 5.195652700521784 0
7.730104796770161 1.621880845768898 0
1.890398048229655 2.263654784572 0
2.625947261027599 2.884511597995552 0
2.073132398944057 4.813214053679595 0
2.996574337698565 5.142806099806577 0
0.574743683103714 0.7313822655689736 0
0.2766956417528514 5.492808622181287 0
2.405740928480191 0.6579510344010474 0
9.365156706136233 5.623557286223972 0
2.594118711951854 0.3292687857645983 0
1.013823909450582 0.3238000393609875 0
9.43722591102078 0.3093019225372313 0
1.820955515542749 0.3320545931584181 0
1.532528201403196 2.260055933974516 0
0.559164382830231 5.328492374764572 0
2.989804323140853 0.3296570385089635 0
1.317105009954139 0.6902129317089551 0
4.031720781991052 4.048585538452058 0
2.25602748391704 2.881362158743572 0
9.44355569777499 3.685499237204508 0
4.15344454558702 5.157526583369992 0
7.109789852409005 1.627912004185869 0
2.237019496814532 0.997167600205275 0
3.743108394573839 0.9880356694012178 0
9.304186044639025 1.090056259273702 0
3.956721350407228 0.6860898812951357 0
2.038827889156542 0.6660772295697527 0
5.16792576717595 2.497416009207304 0
0.6024015296533398 4.304492685828939 0
4.9375 5.713719304603619 0
5.161245383040952 2.832681186042153 0
5.415636819903188 5.369167456533953 0
7.0977342551652 0.8842464991979636 0
7.10472453334759 1.253541453470282 0
5.163179908179747 3.167076723026338 0
6.085122398516243 5.702067746843479 0
0.9926672715085378 3.183410769836344 0
9.643271384882778 2.019445716528737 0
0.2555613802655523 1.5 0
6.347674918868051 4.552010489884536 0
4.878066756027831 3.314881201194316 0
0.609031875151238 1.326598027841246 0
2.796946908564034 5.685929464718328 0
4.629130870618596 0.3096597013450743 0
1.187037453875984 1.623760836622119 0
1.167007288416806 2.244849074973952 0
6 2.23695025307598 0
7.109443763603633 5.421737492973747 0
0.9833356843980875 2.54805956050489 0
4.020299554719116 2.24618241121485 0
4.955559286893209 1.271146146584409 0
1.180053173461951 5.076496066444016 0
6.599614717385688 4.777337100736652 0
4.124849050021767 5.726063166618313 0
4.367471123189076 1.593543996097236 0
7.635019139446079 5.459334909059903 0
3.609013933638023 5.45084666142219 0
7.501712435773054 3.253934637666336 0
9.051690154388092 5.333064767726853 0
1.67444736336608 5.731214022004428 0
6.316855005825523 0.3035593403239583 0
6 0.2777777777777752 0
7.736064522259681 0.5694730455373139 0
6.591719122630428 5.098201945799579 0
6.548742677094798 5.405170901431945 0
2.085901028058558 5.358307478978784 0
4.351774291414522 2.939375334479912 0
2.441167364415193 5.765848486939984 0
4.638412227160025 3.474862775245451 0
7.067002925207402 0.5755156562957481 0
9.183994370446735 3.559367357456221 0
5.315522939670928 0.2874489763483413 0
5.71807717930386 2.257434096560157 0
0.823547586060362 5.421781160716708 0
6.776372351939971 2.440482215964185 0
1.4224271531501 5.397721828949829 0
3.243798410875118 3.733305033188482 0
1.265024397726047 4.281082594373681 0
6.261718800809844 2.218991896334096 0
9.193031889403544 3.257531267353189 0
4.268480005960716 0.7360228773151222 0
5.708142712168101 0.260871125687686 0
4.29922995482646 4.027789887858099 0
0.5351016701231294 4.593635160080308 0
1.26782247334964 3.718899841805456 0
3.079048901411695 4.833461119347088 0
7.537728714709282 3.567163929715573 0
8.944366558127127 0.6027991562735656 0
9.707179676972453 5.707179676972457 0
9.725472989190035 0.2745270108122335 0
0.513972186632403 1.011867934747108 0
7.269895171191212 4.061863198098272 0
4.106075615846454 4.571174444121326 0
7.243776737186278 3.244432972156667 0
7.495707475734828 2.787077163298495 0
0.538251133388583 5.072466170570425 0
7.254947613883212 3.770325517832868 0
8.410929067609576 0.5973321618761696 0
9.244457222712972 2.770395007109502 0
0.8812786597653445 3.447312049661091 0
5.910147103961794 4.335543730978851 0
6.619217591789692 4.506139723282216 0
6.162069892684642 2.4814704087031 0
5.108877296054458 5.485057536702018 0
8.316426761074235 4.711979640537951 0
4.112083799251592 2.52070413426904 0
0.2428391283498074 5.766943152486029 0
4.848040234198674 0.5889443546579115 0
6.545250528366847 0.2302750403220546 0
0.2583531290093998 0.2397186038708838 0
0.7854094072110038 2.202619799441434 0
3.779269819363685 4.018031824572164 0
9.193863932344291 3.869257154219405 0
6.281347794951634 5.480989928202205 0
7.350698765560202 5.525004462022519 0
8.770098653764389 4.895212796693599 0
9.180551288665118 4.142440255841424 0
3.032177508938359 5.461891766853735 0
5.637876980864922 2.534585376217894 0
9.54553533016724 2.66580396102526 0
5.924610079397827 2.703694359810652 0
9.022136260353742 4.678284933317028 0
4.330866101196781 4.651508760358018 0
$EndNodes
$Elements
29 1202 1 1202
1 1 1 3
1 1 29 
2 29 30 
3 30 2 
1 2 1 3
4 2 31 
5 31 32 
6 32 3 
1 3 1 5
7 3 33 
8 33 34 
9 34 35 
10 35 36 
11 36 4 
1 4 1 3
12 4 37 
13 37 38 
14 38 5 
1 5 1 3
15 5 39 
16 39 40 
17 40 6 
1 6 1 8
18 6 41 
19 41 42 
20 42 43 
21 43 44 
22 44 45 
23 45 46 
24 46 47 
25 47 7 
1 7 1 3
26 7 48 
27 48 49 
28 49 8 
1 8 1 8
29 8 50 
30 50 51 
31 51 52 
32 52 53 
33 53 54 
34 54 55 
35 55 56 
36 56 9 
1 9 1 3
37 9 57 
38 57 58 
39 58 10 
1 10 1 5
40 10 59 
41 59 60 
42 60 61 
43 61 62 
44 62 11 
1 11 1 5
45 11 63 
46 63 64 
47 64 65 
48 65 66 
49 66 12 
1 12 1 3
50 12 67 
51 67 68 
52 68 13 
1 13 1 8
53 13 69 
54 69 70 
55 70 71 
56 71 72 
57 72 73 
58 73 74 
59 74 75 
60 75 14 
1 14 1 8
61 14 76 
62 76 77 
63 77 78 
64 78 79 
65 79 80 
66 80 81 
67 81 82 
68 82 15 
1 15 1 3
69 15 83 
70 83 84 
71 84 16 
1 16 1 15
72 16 85 
73 85 86 
74 86 87 
75 87 88 
76 88 89 
77 89 90 
78 90 91 
79 91 92 
80 92 93 
81 93 94 
82 94 95 
83 95 96 
84 96 97 
85 97 98 
86 98 1 
1 18 1 3
87 17 99 
88 99 100 
89 100 18 
1 19 1 4
90 18 101 
91 101 102 
92 102 103 
93 103 20 
1 20 1 3
94 20 104 
95 104 105 
96 105 19 
1 21 1 4
97 19 106 
98 106 107 
99 107 108 
100 108 17 
1 22 1 3
101 21 109 
102 109 110 
103 110 22 
1 23 1 3
104 22 111 
105 111 112 
106 112 23 
1 24 1 3
107 23 113 
108 113 114 
109 114 24 
1 25 1 3
110 24 115 
111 115 116 
112 116 21 
1 30 1 4
113 25 117 
114 117 118 
115 118 119 
116 119 26 
1 31 1 3
117 26 120 
118 120 121 
119 121 27 
1 32 1 4
120 27 122 
121 122 123 
122 123 124 
123 124 28 
1 34 1 3
124 28 125 
125 125 126 
126 126 25 
2 1 2 1076
127 447 333 579 
128 329 180 465 
129 426 162 530 
130 218 433 488 
131 354 461 462 
132 359 426 530 
133 180 329 531 
134 3 33 369 
135 433 218 564 
136 274 405 497 
137 192 376 420 
138 158 348 464 
139 321 329 364 
140 412 24 466 
141 234 447 579 
142 346 274 497 
143 235 338 360 
144 485 385 535 
145 144 346 359 
146 376 192 535 
147 24 412 568 
148 525 522 587 
149 425 184 436 
150 127 3 369 
151 338 235 551 
152 288 374 375 
153 461 187 462 
154 364 329 527 
155 288 373 374 
156 299 385 485 
157 69 386 596 
158 343 232 482 
159 69 70 386 
160 70 71 514 
161 346 144 358 
162 487 343 493 
163 231 367 513 
164 232 343 487 
165 158 464 508 
166 171 515 518 
167 165 487 493 
168 368 525 587 
169 356 196 407 
170 537 84 538 
171 84 16 538 
172 347 27 387 
173 371 395 518 
174 425 436 533 
175 221 392 542 
176 395 302 518 
177 339 143 428 
178 386 70 514 
179 50 144 530 
180 357 326 431 
181 144 359 530 
182 468 207 521 
183 395 468 521 
184 12 133 380 
185 36 4 352 
186 515 371 518 
187 429 174 501 
188 378 422 556 
189 328 401 524 
190 392 221 544 
191 134 69 596 
192 66 12 380 
193 352 4 362 
194 461 354 505 
195 222 179 404 
196 349 136 429 
197 538 16 558 
198 136 349 452 
199 348 158 512 
200 143 339 574 
201 393 392 519 
202 422 378 575 
203 381 380 383 
204 367 231 525 
205 440 500 502 
206 376 374 420 
207 500 320 502 
208 33 178 369 
209 381 383 593 
210 435 289 516 
211 367 355 513 
212 333 555 579 
213 178 366 367 
214 195 536 552 
215 179 180 404 
216 522 468 587 
217 519 392 544 
218 361 400 571 
219 362 194 505 
220 127 369 370 
221 349 429 501 
222 289 435 577 
223 380 133 383 
224 192 485 535 
225 178 367 368 
226 356 407 546 
227 401 150 524 
228 398 268 413 
229 175 365 520 
230 299 384 385 
231 321 364 365 
232 433 432 488 
233 184 425 594 
234 575 378 596 
235 354 352 362 
236 178 34 366 
237 400 361 534 
238 299 64 384 
239 536 350 552 
240 295 440 459 
241 37 194 362 
242 4 37 362 
243 363 26 548 
244 448 322 474 
245 365 175 557 
246 16 85 558 
247 378 134 596 
248 341 421 477 
249 440 137 459 
250 135 489 503 
251 165 351 489 
252 205 36 352 
253 329 465 527 
254 268 398 437 
255 205 352 353 
256 119 26 363 
257 357 442 545 
258 431 326 543 
259 416 409 441 
260 357 334 442 
261 25 117 128 
262 235 360 469 
263 118 164 390 
264 305 416 441 
265 359 346 497 
266 137 91 492 
267 401 328 541 
268 249 247 411 
269 64 65 384 
270 155 66 380 
271 425 233 481 
272 34 35 366 
273 236 235 469 
274 221 350 536 
275 373 288 455 
276 178 368 369 
277 268 411 413 
278 332 433 564 
279 489 351 503 
280 25 128 156 
281 353 352 354 
282 19 106 388 
283 71 136 514 
284 421 237 477 
285 268 249 411 
286 313 391 480 
287 13 69 134 
288 392 391 542 
289 375 374 376 
290 351 165 493 
291 27 122 387 
292 247 399 411 
293 347 387 546 
294 140 20 408 
295 155 380 381 
296 127 370 371 
297 103 20 129 
298 10 59 142 
299 9 150 401 
300 333 447 551 
301 56 9 401 
302 27 347 585 
303 309 42 402 
304 247 244 399 
305 426 359 497 
306 322 448 588 
307 253 251 437 
308 396 271 397 
309 129 20 140 
310 416 305 526 
311 65 66 155 
312 505 194 560 
313 251 268 437 
314 13 134 377 
315 82 15 407 
316 283 419 470 
317 261 271 396 
318 18 101 139 
319 337 267 412 
320 108 17 216 
321 97 98 232 
322 374 142 420 
323 306 363 548 
324 350 221 542 
325 222 404 526 
326 388 197 389 
327 174 433 501 
328 35 36 205 
329 224 28 333 
330 124 28 130 
331 86 87 306 
332 459 137 492 
333 398 271 437 
334 15 347 407 
335 162 426 533 
336 418 158 508 
337 389 392 393 
338 402 195 403 
339 204 409 416 
340 146 140 408 
341 307 394 494 
342 419 242 470 
343 267 263 412 
344 244 241 399 
345 215 301 302 
346 182 56 401 
347 152 147 409 
348 65 155 384 
349 217 17 293 
350 90 137 410 
351 304 439 582 
352 139 101 473 
353 53 158 418 
354 103 129 406 
355 263 396 412 
356 262 261 263 
357 43 195 402 
358 241 239 264 
359 261 257 271 
360 41 42 309 
361 377 378 379 
362 263 261 396 
363 241 264 399 
364 275 139 473 
365 399 264 400 
366 262 263 266 
367 358 144 506 
368 266 263 267 
369 163 123 417 
370 204 161 409 
371 108 216 480 
372 246 244 247 
373 397 271 398 
374 161 152 409 
375 102 103 406 
376 216 17 217 
377 246 247 248 
378 317 316 404 
379 312 528 552 
380 294 293 323 
381 35 205 366 
382 130 28 224 
383 266 267 298 
384 211 204 316 
385 257 253 437 
386 164 119 363 
387 377 134 378 
388 186 161 204 
389 337 412 466 
390 442 191 545 
391 43 44 195 
392 302 301 324 
393 248 247 249 
394 95 96 165 
395 175 89 410 
396 504 209 507 
397 88 89 175 
398 145 140 146 
399 55 56 182 
400 97 232 487 
401 50 51 144 
402 450 449 482 
403 529 291 540 
404 42 43 402 
405 316 204 416 
406 225 224 235 
407 410 137 440 
408 245 244 246 
409 344 265 423 
410 243 241 244 
411 168 166 415 
412 106 197 388 
413 149 146 210 
414 399 400 411 
415 321 319 329 
416 53 54 158 
417 52 53 418 
418 368 367 525 
419 240 239 241 
420 122 163 387 
421 294 323 335 
422 354 362 505 
423 33 34 178 
424 25 156 444 
425 258 261 262 
426 411 400 413 
427 128 117 390 
428 148 146 149 
429 60 61 192 
430 149 210 228 
431 118 119 164 
432 409 147 441 
433 216 313 480 
434 229 210 322 
435 266 298 308 
436 391 197 480 
437 258 257 261 
438 331 341 419 
439 272 172 415 
440 117 118 390 
441 419 341 477 
442 210 146 408 
443 238 236 239 
444 172 168 415 
445 248 260 422 
446 228 357 431 
447 322 210 408 
448 18 139 206 
449 196 356 539 
450 164 363 364 
451 142 59 420 
452 283 331 419 
453 228 210 229 
454 296 265 344 
455 93 94 135 
456 90 91 137 
457 149 228 431 
458 415 166 438 
459 59 60 420 
460 397 563 573 
461 186 204 211 
462 176 208 209 
463 211 316 317 
464 170 168 172 
465 424 233 425 
466 89 90 410 
467 305 304 582 
468 148 149 304 
469 331 340 341 
470 60 192 420 
471 248 250 260 
472 191 172 272 
473 248 249 250 
474 213 233 424 
475 251 249 268 
476 298 267 327 
477 291 345 540 
478 209 219 325 
479 246 422 423 
480 327 267 337 
481 145 146 148 
482 198 160 199 
483 341 342 421 
484 63 64 299 
485 18 206 297 
486 188 183 394 
487 156 128 157 
488 122 123 163 
489 209 208 219 
490 447 338 551 
491 388 389 481 
492 174 432 433 
493 245 246 423 
494 213 190 233 
495 243 244 245 
496 238 239 240 
497 389 391 392 
498 287 213 424 
499 228 229 334 
500 304 149 431 
501 240 241 243 
502 289 290 291 
503 81 196 428 
504 271 257 437 
505 136 72 429 
506 153 198 414 
507 256 253 257 
508 141 140 145 
509 203 214 215 
510 342 340 356 
511 246 248 422 
512 71 72 136 
513 202 201 203 
514 280 282 283 
515 81 82 196 
516 143 80 428 
517 170 172 173 
518 196 82 407 
519 225 235 236 
520 189 227 289 
521 218 78 430 
522 73 174 429 
523 79 80 143 
524 72 73 429 
525 80 81 428 
526 283 330 331 
527 79 143 430 
528 173 172 191 
529 153 160 198 
530 78 79 430 
531 156 157 176 
532 73 74 174 
533 77 78 218 
534 174 74 432 
535 74 75 432 
536 105 19 132 
537 99 100 187 
538 37 38 194 
539 110 22 131 
540 45 46 221 
541 113 114 138 
542 115 116 154 
543 12 67 133 
544 22 111 234 
545 9 57 150 
546 106 107 197 
547 132 19 190 
548 49 8 162 
549 48 49 436 
550 7 48 184 
551 49 162 436 
552 184 48 436 
553 341 340 342 
554 325 219 326 
555 239 236 469 
556 183 173 442 
557 228 334 357 
558 10 142 372 
559 287 424 426 
560 110 131 438 
561 109 110 438 
562 176 179 208 
563 151 153 414 
564 205 353 355 
565 250 249 251 
566 21 109 166 
567 314 275 471 
568 177 173 183 
569 283 282 330 
570 331 339 340 
571 223 314 427 
572 131 22 226 
573 389 197 391 
574 123 124 417 
575 425 481 594 
576 166 109 438 
577 252 255 269 
578 519 184 594 
579 237 236 238 
580 259 592 598 
581 199 201 202 
582 173 191 442 
583 372 142 373 
584 165 96 487 
585 331 330 339 
586 199 200 201 
587 528 403 552 
588 212 190 213 
589 385 382 445 
590 314 471 478 
591 272 415 460 
592 223 275 314 
593 286 213 287 
594 131 226 292 
595 153 159 160 
596 169 168 170 
597 199 160 200 
598 132 190 212 
599 203 201 214 
600 215 300 301 
601 280 281 282 
602 176 157 179 
603 296 344 386 
604 159 152 161 
605 219 208 439 
606 323 461 505 
607 217 293 294 
608 185 161 186 
609 148 304 305 
610 202 203 207 
611 282 281 332 
612 292 226 310 
613 295 220 456 
614 256 257 258 
615 177 183 188 
616 116 21 435 
617 154 116 435 
618 278 279 280 
619 330 282 443 
620 260 250 454 
621 265 245 423 
622 234 111 447 
623 111 112 447 
624 238 240 242 
625 194 38 434 
626 38 5 434 
627 280 279 281 
628 151 152 153 
629 282 332 443 
630 225 236 237 
631 281 279 349 
632 254 245 265 
633 360 23 361 
634 212 286 307 
635 212 213 286 
636 309 402 550 
637 371 370 395 
638 133 67 457 
639 289 227 290 
640 128 390 465 
641 8 50 530 
642 318 317 319 
643 208 179 222 
644 15 83 347 
645 169 170 446 
646 313 312 350 
647 270 296 452 
648 170 173 177 
649 95 165 489 
650 279 270 452 
651 155 381 382 
652 270 265 296 
653 170 177 446 
654 252 269 454 
655 232 450 482 
656 377 379 457 
657 280 283 470 
658 278 270 279 
659 277 220 295 
660 291 290 345 
661 208 222 439 
662 132 212 448 
663 115 154 466 
664 276 277 285 
665 254 270 278 
666 438 131 460 
667 159 161 185 
668 320 319 321 
669 406 129 479 
670 153 152 159 
671 366 355 367 
672 479 414 495 
673 67 68 457 
674 145 148 441 
675 32 3 127 
676 185 220 276 
677 21 166 167 
678 243 245 254 
679 242 451 470 
680 177 188 273 
681 294 335 336 
682 273 188 274 
683 336 403 528 
684 211 317 318 
685 323 293 461 
686 68 13 377 
687 167 169 189 
688 112 23 338 
689 298 327 328 
690 254 265 270 
691 160 159 453 
692 276 220 277 
693 250 251 252 
694 212 307 448 
695 286 287 405 
696 223 139 275 
697 5 39 181 
698 215 214 300 
699 167 166 168 
700 148 305 441 
701 129 140 141 
702 237 421 498 
703 101 102 473 
704 284 274 346 
705 415 438 460 
706 141 145 147 
707 285 277 311 
708 135 94 489 
709 185 186 220 
710 273 274 284 
711 269 255 458 
712 189 193 227 
713 177 273 446 
714 167 168 169 
715 104 105 474 
716 349 279 452 
717 199 202 478 
718 373 142 374 
719 242 240 451 
720 252 251 253 
721 288 262 455 
722 30 2 449 
723 189 169 193 
724 258 262 288 
725 2 31 171 
726 451 278 470 
727 284 346 358 
728 227 193 230 
729 240 243 451 
730 151 147 152 
731 231 223 427 
732 200 160 453 
733 324 301 343 
734 147 145 441 
735 107 108 480 
736 24 115 466 
737 164 364 527 
738 353 354 462 
739 131 292 460 
740 242 419 477 
741 345 290 348 
742 206 223 231 
743 318 319 320 
744 179 157 180 
745 338 23 360 
746 130 224 225 
747 275 473 495 
748 302 395 521 
749 262 266 455 
750 141 147 151 
751 193 169 446 
752 342 509 510 
753 57 58 472 
754 150 57 472 
755 384 382 385 
756 255 253 256 
757 112 338 447 
758 254 278 451 
759 300 214 303 
760 478 202 490 
761 144 51 506 
762 5 181 434 
763 300 303 351 
764 243 254 451 
765 306 87 520 
766 264 239 469 
767 266 308 455 
768 61 62 485 
769 132 448 474 
770 201 200 463 
771 68 377 457 
772 214 201 463 
773 102 406 473 
774 7 184 519 
775 277 295 459 
776 410 440 502 
777 159 185 453 
778 185 276 453 
779 52 418 506 
780 250 252 454 
781 252 253 255 
782 526 305 582 
783 186 211 456 
784 216 312 313 
785 255 256 259 
786 276 285 475 
787 414 198 471 
788 220 186 456 
789 434 335 560 
790 76 77 488 
791 397 398 563 
792 433 332 501 
793 55 182 512 
794 310 504 507 
795 215 302 521 
796 216 217 312 
797 238 242 477 
798 91 92 492 
799 155 382 384 
800 158 54 512 
801 151 414 479 
802 290 227 464 
803 404 180 531 
804 227 230 464 
805 124 130 417 
806 85 548 558 
807 182 401 541 
808 471 275 495 
809 311 277 459 
810 157 128 465 
811 278 280 470 
812 225 237 498 
813 211 318 456 
814 230 467 476 
815 467 284 476 
816 406 479 495 
817 206 139 223 
818 303 214 463 
819 205 355 366 
820 136 452 514 
821 29 30 450 
822 471 198 478 
823 534 138 563 
824 105 132 474 
825 230 193 467 
826 273 284 467 
827 176 209 504 
828 383 133 496 
829 348 290 464 
830 395 370 468 
831 389 393 481 
832 85 86 548 
833 198 199 478 
834 465 390 527 
835 2 171 449 
836 88 175 520 
837 287 426 497 
838 326 357 545 
839 498 421 510 
840 255 259 458 
841 191 272 517 
842 404 316 526 
843 92 93 486 
844 446 273 467 
845 39 40 483 
846 193 446 467 
847 375 259 581 
848 58 10 372 
849 93 135 486 
850 237 238 477 
851 200 453 475 
852 407 347 546 
853 194 434 560 
854 288 375 581 
855 332 281 501 
856 197 107 480 
857 314 478 490 
858 192 61 485 
859 129 141 479 
860 499 484 503 
861 180 157 465 
862 285 484 499 
863 412 396 568 
864 181 39 483 
865 329 319 531 
866 417 498 510 
867 141 151 479 
868 308 298 524 
869 394 307 569 
870 30 449 450 
871 284 358 476 
872 343 301 493 
873 207 203 521 
874 285 311 484 
875 463 200 475 
876 491 309 550 
877 127 371 515 
878 195 44 536 
879 453 276 475 
880 317 404 531 
881 77 218 488 
882 408 20 553 
883 133 457 496 
884 96 97 487 
885 306 520 584 
886 310 444 504 
887 202 207 490 
888 436 162 533 
889 509 163 510 
890 92 486 492 
891 300 351 493 
892 295 456 500 
893 400 264 571 
894 427 314 490 
895 289 291 516 
896 430 143 574 
897 452 296 514 
898 440 295 500 
899 424 425 533 
900 94 95 489 
901 58 372 472 
902 444 156 504 
903 318 320 500 
904 445 376 535 
905 342 356 509 
906 334 229 494 
907 443 430 574 
908 301 300 493 
909 324 343 482 
910 472 532 591 
911 32 127 515 
912 45 221 536 
913 423 422 575 
914 486 311 492 
915 473 406 495 
916 135 484 486 
917 381 458 598 
918 272 460 511 
919 458 259 598 
920 235 224 551 
921 20 104 553 
922 356 340 539 
923 385 445 535 
924 19 388 562 
925 457 379 496 
926 221 46 544 
927 171 31 515 
928 475 285 499 
929 189 289 577 
930 405 287 497 
931 484 311 486 
932 417 130 498 
933 393 519 594 
934 171 518 567 
935 335 434 572 
936 98 1 586 
937 387 163 509 
938 311 459 492 
939 130 225 498 
940 163 417 510 
941 47 7 519 
942 326 219 543 
943 382 381 598 
944 175 410 502 
945 293 17 554 
946 11 63 565 
947 62 11 565 
948 333 28 555 
949 75 14 566 
950 14 76 566 
951 414 471 495 
952 294 336 528 
953 229 322 588 
954 390 164 527 
955 25 444 549 
956 126 25 549 
957 209 325 507 
958 532 308 591 
959 17 99 554 
960 114 24 573 
961 23 113 570 
962 83 84 585 
963 230 476 508 
964 156 176 504 
965 281 349 501 
966 181 483 491 
967 463 475 499 
968 516 291 529 
969 361 23 570 
970 51 52 506 
971 312 217 528 
972 339 330 574 
973 456 318 500 
974 595 226 597 
975 28 125 555 
976 206 231 513 
977 6 41 583 
978 190 19 562 
979 100 18 561 
980 303 499 503 
981 24 568 573 
982 421 342 510 
983 303 463 499 
984 435 21 577 
985 292 310 507 
986 351 303 503 
987 307 286 569 
988 507 325 511 
989 18 297 561 
990 21 167 577 
991 138 534 570 
992 403 336 550 
993 292 507 511 
994 481 393 594 
995 592 445 598 
996 54 55 512 
997 464 230 508 
998 462 297 576 
999 484 135 503 
1000 175 502 557 
1001 31 32 515 
1002 315 595 597 
1003 296 386 514 
1004 259 375 592 
1005 439 304 543 
1006 460 292 511 
1007 259 256 581 
1008 483 309 491 
1009 302 324 518 
1010 218 430 564 
1011 434 181 572 
1012 563 138 573 
1013 154 435 516 
1014 40 6 583 
1015 313 350 542 
1016 430 443 564 
1017 391 313 542 
1018 369 368 587 
1019 297 206 513 
1020 325 326 517 
1021 232 98 586 
1022 258 288 581 
1023 188 394 599 
1024 272 511 517 
1025 589 269 593 
1026 466 154 578 
1027 516 529 578 
1028 203 215 521 
1029 304 431 543 
1030 548 26 558 
1031 547 379 556 
1032 1 29 586 
1033 360 361 571 
1034 494 394 559 
1035 370 369 587 
1036 454 269 589 
1037 388 481 562 
1038 87 88 520 
1039 269 458 593 
1040 372 373 532 
1041 469 360 571 
1042 337 466 578 
1043 353 462 576 
1044 363 306 584 
1045 427 522 525 
1046 125 126 523 
1047 472 372 532 
1048 458 381 593 
1049 512 182 590 
1050 394 183 559 
1051 339 428 539 
1052 520 365 584 
1053 316 416 526 
1054 379 378 556 
1055 511 325 517 
1056 47 519 544 
1057 298 328 524 
1058 442 334 559 
1059 450 232 586 
1060 183 442 559 
1061 508 476 580 
1062 41 309 583 
1063 327 337 529 
1064 297 462 561 
1065 231 427 525 
1066 448 307 588 
1067 490 207 522 
1068 84 537 585 
1069 455 308 532 
1070 319 317 531 
1071 207 468 522 
1072 162 8 530 
1073 86 306 548 
1074 364 363 584 
1075 426 424 533 
1076 310 226 595 
1077 413 400 534 
1078 217 294 528 
1079 462 187 561 
1080 481 233 562 
1081 191 517 545 
1082 428 196 539 
1083 44 45 536 
1084 496 379 547 
1085 121 537 538 
1086 120 121 538 
1087 121 27 537 
1088 405 274 599 
1089 375 376 592 
1090 427 490 522 
1091 340 339 539 
1092 321 365 557 
1093 373 455 532 
1094 327 529 540 
1095 403 195 552 
1096 398 413 563 
1097 402 403 550 
1098 482 449 567 
1099 344 575 596 
1100 46 47 544 
1101 307 494 588 
1102 320 321 557 
1103 328 327 540 
1104 413 534 563 
1105 219 439 543 
1106 396 397 568 
1107 260 547 556 
1108 506 418 580 
1109 376 445 592 
1110 485 62 565 
1111 322 408 553 
1112 365 364 584 
1113 335 323 560 
1114 418 508 580 
1115 355 353 576 
1116 76 488 566 
1117 344 423 575 
1118 394 569 599 
1119 422 260 556 
1120 187 461 554 
1121 260 454 547 
1122 104 474 553 
1123 383 589 593 
1124 350 312 552 
1125 99 187 554 
1126 323 505 560 
1127 22 234 597 
1128 308 524 591 
1129 509 356 546 
1130 224 333 551 
1131 336 335 572 
1132 233 190 562 
1133 226 22 597 
1134 63 299 565 
1135 187 100 561 
1136 26 120 558 
1137 324 482 567 
1138 432 75 566 
1139 120 538 558 
1140 461 293 554 
1141 443 332 564 
1142 113 138 570 
1143 138 114 573 
1144 309 483 583 
1145 445 382 598 
1146 330 443 574 
1147 348 512 590 
1148 167 189 577 
1149 286 405 569 
1150 474 322 553 
1151 386 344 596 
1152 502 320 557 
1153 439 222 582 
1154 347 83 585 
1155 579 315 597 
1156 299 485 565 
1157 274 188 599 
1158 256 258 581 
1159 264 469 571 
1160 444 310 595 
1161 234 579 597 
1162 568 397 573 
1163 488 432 566 
1164 518 324 567 
1165 449 171 567 
1166 476 358 580 
1167 345 348 590 
1168 150 472 591 
1169 540 345 541 
1170 468 370 587 
1171 387 509 546 
1172 334 494 559 
1173 336 491 550 
1174 29 450 586 
1175 483 40 583 
1176 491 336 572 
1177 358 506 580 
1178 181 491 572 
1179 517 326 545 
1180 383 496 589 
1181 315 523 549 
1182 494 229 588 
1183 154 516 578 
1184 328 540 541 
1185 315 549 595 
1186 541 345 590 
1187 523 126 549 
1188 297 513 576 
1189 125 523 555 
1190 513 355 576 
1191 222 526 582 
1192 549 444 595 
1193 534 361 570 
1194 523 315 579 
1195 537 27 585 
1196 529 337 578 
1197 524 150 591 
1198 496 547 589 
1199 182 541 590 
1200 555 523 579 
1201 547 454 589 
1202 569 405 599 
$EndElements
